<mxfile host="app.diagrams.net" modified="2021-05-03T19:29:33.093Z" agent="5.0 (Windows NT 10.0; Win64; x64) AppleWebKit/537.36 (KHTML, like Gecko) Chrome/90.0.4430.93 Safari/537.36" etag="X7qnviI7oz1k7fzd9nvB" version="14.6.9" type="github">
  <diagram id="6j415W0fR8gfxXezOPo3" name="Page-1">
    <mxGraphModel dx="1038" dy="1680" grid="1" gridSize="10" guides="1" tooltips="1" connect="1" arrows="1" fold="1" page="1" pageScale="1" pageWidth="850" pageHeight="1100" math="0" shadow="0">
      <root>
        <mxCell id="0" />
        <mxCell id="1" parent="0" />
        <mxCell id="agTiO8w5G-vtbanSEzh6-1" value="" style="whiteSpace=wrap;html=1;aspect=fixed;" vertex="1" parent="1">
          <mxGeometry x="110" y="-170" width="660" height="660" as="geometry" />
        </mxCell>
        <mxCell id="agTiO8w5G-vtbanSEzh6-2" value="" style="rounded=0;whiteSpace=wrap;html=1;" vertex="1" parent="1">
          <mxGeometry x="160" y="-140" width="120" height="60" as="geometry" />
        </mxCell>
      </root>
    </mxGraphModel>
  </diagram>
</mxfile>
